<svg width="230" height="51" viewBox="0 0 230 51" fill="none" xmlns="http://www.w3.org/2000/svg">
<circle cx="12" cy="27" r="12" fill="#228BFE"/>
<rect x="10.25" y="20" width="3.5" height="14" fill="white"/>
<rect x="19" y="25.25" width="3.5" height="14" transform="rotate(90 19 25.25)" fill="white"/>
<path d="M38.96 37V17.96H46.968C49.0773 17.96 50.9067 18.5293 52.456 19.668C54.024 20.8067 54.808 22.524 54.808 24.82C54.808 27.0973 53.9773 28.7773 52.316 29.86C50.6547 30.924 48.7973 31.456 46.744 31.456H44.056V37H38.96ZM46.8 21.964H44.056V27.452H46.856C47.64 27.452 48.284 27.2 48.788 26.696C49.292 26.192 49.544 25.5667 49.544 24.82C49.544 23.98 49.3013 23.2987 48.816 22.776C48.3307 22.2347 47.6587 21.964 46.8 21.964ZM60.4084 37V17.96H73.0364L73.5124 21.964H65.5044V25.436H71.3564L71.8324 29.44H65.5044V32.996H73.8764L74.3524 37H60.4084ZM79.6694 37V17.96H88.0134C90.944 17.96 93.1747 18.856 94.7054 20.648C96.236 22.4213 97.0014 24.6613 97.0014 27.368C97.0014 30.336 96.152 32.688 94.4534 34.424C92.7547 36.1413 90.5707 37 87.9014 37H79.6694ZM87.7614 21.964H84.7654V32.996H87.5654C88.7414 32.996 89.7307 32.5293 90.5334 31.596C91.336 30.6627 91.7374 29.2533 91.7374 27.368C91.7374 25.8 91.392 24.512 90.7014 23.504C90.0294 22.4773 89.0494 21.964 87.7614 21.964ZM114.298 29.468V17.96H119.394V29.72C119.394 32.2027 118.601 34.1067 117.014 35.432C115.446 36.7387 113.393 37.392 110.854 37.392C108.316 37.392 106.253 36.7387 104.666 35.432C103.098 34.1067 102.314 32.2027 102.314 29.72V17.96H107.41V29.468C107.41 30.6627 107.728 31.5773 108.362 32.212C109.016 32.828 109.846 33.136 110.854 33.136C111.862 33.136 112.684 32.828 113.318 32.212C113.972 31.5773 114.298 30.6627 114.298 29.468ZM139.511 37H125.847V17.96H130.943V32.996H139.035L139.511 37ZM144.562 37V17.96H149.658V37H144.562ZM165.337 37V17.96H173.681C176.612 17.96 178.843 18.856 180.373 20.648C181.904 22.4213 182.669 24.6613 182.669 27.368C182.669 30.336 181.82 32.688 180.121 34.424C178.423 36.1413 176.239 37 173.569 37H165.337ZM173.429 21.964H170.433V32.996H173.233C174.409 32.996 175.399 32.5293 176.201 31.596C177.004 30.6627 177.405 29.2533 177.405 27.368C177.405 25.8 177.06 24.512 176.369 23.504C175.697 22.4773 174.717 21.964 173.429 21.964ZM188.262 37V17.96H193.358V37H188.262ZM207.926 21.964H205.182V27.004H207.982C208.766 27.004 209.41 26.7707 209.914 26.304C210.418 25.8187 210.67 25.2027 210.67 24.456C210.67 23.616 210.427 22.9907 209.942 22.58C209.456 22.1693 208.784 21.964 207.926 21.964ZM200.086 37V17.96H208.094C210.203 17.96 212.032 18.4733 213.582 19.5C215.15 20.508 215.934 22.16 215.934 24.456C215.934 25.6133 215.691 26.612 215.206 27.452C214.739 28.292 214.123 28.9733 213.358 29.496L217.558 37H211.65L208.57 31.008H205.182V37H200.086ZM222.601 37V17.96H227.697V37H222.601Z" fill="#228BFE"/>
</svg>
